<?xml version="1.0" encoding="UTF-8" standalone="no"?>
<!DOCTYPE svg PUBLIC "-//W3C//DTD SVG 1.1//EN" "http://www.w3.org/Graphics/SVG/1.1/DTD/svg11.dtd">
<svg width="100%" height="100%" viewBox="0 0 633 74" version="1.1" xmlns="http://www.w3.org/2000/svg" xmlns:xlink="http://www.w3.org/1999/xlink" xml:space="preserve" xmlns:serif="http://www.serif.com/" style="fill-rule:evenodd;clip-rule:evenodd;stroke-linejoin:round;stroke-miterlimit:2;">
    <g transform="matrix(1,0,0,1,-274.215,1521.64)">
        <g transform="matrix(1,0,0,1,-490.354,-442.369)">
            <g transform="matrix(1,0,0,1,-146.436,-665.371)">
                <path d="M1335.96,-340.667C1333.92,-340.667 1332.14,-341.024 1330.62,-341.739C1329.09,-342.454 1327.91,-343.478 1327.07,-344.812C1326.23,-346.145 1325.81,-347.733 1325.81,-349.575L1330.89,-349.575C1330.89,-348.228 1331.35,-347.156 1332.27,-346.358C1333.19,-345.561 1334.42,-345.162 1335.96,-345.162C1337.44,-345.162 1338.62,-345.554 1339.49,-346.338C1340.35,-347.121 1340.78,-348.173 1340.78,-349.493C1340.78,-350.482 1340.5,-351.355 1339.94,-352.111C1339.38,-352.867 1338.57,-353.383 1337.53,-353.658L1333.49,-354.689C1331.31,-355.239 1329.59,-356.27 1328.33,-357.782C1327.07,-359.294 1326.43,-361.095 1326.43,-363.184C1326.43,-365.741 1327.27,-367.783 1328.95,-369.309C1330.62,-370.835 1332.87,-371.598 1335.67,-371.598C1337.57,-371.598 1339.22,-371.254 1340.64,-370.567C1342.06,-369.879 1343.15,-368.91 1343.92,-367.659C1344.69,-366.408 1345.07,-364.944 1345.07,-363.267L1340.04,-363.267C1340.04,-364.422 1339.64,-365.356 1338.85,-366.071C1338.05,-366.786 1336.99,-367.144 1335.67,-367.144C1334.38,-367.144 1333.35,-366.793 1332.6,-366.092C1331.84,-365.391 1331.46,-364.477 1331.46,-363.349C1331.46,-362.415 1331.73,-361.645 1332.27,-361.04C1332.8,-360.435 1333.55,-359.995 1334.52,-359.72L1338.68,-358.689C1340.91,-358.139 1342.66,-357.04 1343.94,-355.39C1345.22,-353.74 1345.86,-351.775 1345.86,-349.493C1345.86,-347.705 1345.45,-346.152 1344.64,-344.832C1343.83,-343.513 1342.68,-342.489 1341.2,-341.76C1339.71,-341.031 1337.97,-340.667 1335.96,-340.667Z" style="fill:rgb(213,211,210);fill-rule:nonzero;"/>
            </g>
            <g transform="matrix(1,0,0,1.02003,-148.096,-658.128)">
                <path d="M1377.94,-341.079L1377.94,-371.185L1383.1,-371.185L1383.1,-345.74L1395.88,-345.74L1395.88,-341.079L1377.94,-341.079Z" style="fill:rgb(213,211,210);fill-rule:nonzero;"/>
            </g>
            <g transform="matrix(1,0,0,1,-147.07,-665.371)">
                <path d="M1410.07,-340.667C1407.13,-340.667 1404.82,-341.471 1403.16,-343.08C1401.5,-344.688 1400.67,-346.881 1400.67,-349.658L1400.67,-371.185L1405.86,-371.185L1405.86,-349.699C1405.86,-348.269 1406.22,-347.156 1406.93,-346.358C1407.65,-345.561 1408.69,-345.162 1410.07,-345.162C1411.42,-345.162 1412.45,-345.561 1413.18,-346.358C1413.91,-347.156 1414.28,-348.269 1414.28,-349.699L1414.28,-371.185L1419.47,-371.185L1419.47,-349.658C1419.47,-346.881 1418.65,-344.688 1417,-343.08C1415.35,-341.471 1413.04,-340.667 1410.07,-340.667Z" style="fill:rgb(213,211,210);fill-rule:nonzero;"/>
            </g>
            <g transform="matrix(1,0,0,1.02003,-146.127,-658.128)">
                <path d="M1432.21,-341.079L1432.21,-366.525L1424.34,-366.525L1424.34,-371.185L1445.29,-371.185L1445.29,-366.525L1437.41,-366.525L1437.41,-341.079L1432.21,-341.079Z" style="fill:rgb(213,211,210);fill-rule:nonzero;"/>
            </g>
            <g transform="matrix(1,0,0,1.02003,-145.925,-658.128)">
                <path d="M1450.9,-341.079L1450.9,-345.74L1456.96,-345.74L1456.96,-366.525L1450.9,-366.525L1450.9,-371.185L1468.22,-371.185L1468.22,-366.525L1462.16,-366.525L1462.16,-345.74L1468.22,-345.74L1468.22,-341.079L1450.9,-341.079Z" style="fill:rgb(213,211,210);fill-rule:nonzero;"/>
            </g>
            <g transform="matrix(1,0,0,1.02003,-146.926,-658.128)">
                <path d="M1499.64,-341.079L1499.64,-371.185L1505.95,-371.185L1514.33,-346.853C1514.24,-347.733 1514.16,-348.771 1514.08,-349.967C1514,-351.163 1513.92,-352.379 1513.85,-353.617C1513.78,-354.854 1513.75,-355.954 1513.75,-356.916L1513.75,-371.185L1518.45,-371.185L1518.45,-341.079L1512.14,-341.079L1503.85,-365.411C1503.9,-364.614 1503.97,-363.652 1504.06,-362.525C1504.14,-361.397 1504.21,-360.243 1504.26,-359.06C1504.32,-357.878 1504.35,-356.792 1504.35,-355.802L1504.35,-341.079L1499.64,-341.079Z" style="fill:rgb(213,211,210);fill-rule:nonzero;"/>
            </g>
            <g transform="matrix(1,0,0,1,-146.436,-665.371)">
                <path d="M1533.91,-340.667C1531.88,-340.667 1530.1,-341.024 1528.57,-341.739C1527.05,-342.454 1525.87,-343.478 1525.03,-344.812C1524.19,-346.145 1523.77,-347.733 1523.77,-349.575L1528.84,-349.575C1528.84,-348.228 1529.3,-347.156 1530.22,-346.358C1531.14,-345.561 1532.38,-345.162 1533.91,-345.162C1535.4,-345.162 1536.57,-345.554 1537.44,-346.338C1538.31,-347.121 1538.74,-348.173 1538.74,-349.493C1538.74,-350.482 1538.46,-351.355 1537.89,-352.111C1537.33,-352.867 1536.53,-353.383 1535.48,-353.658L1531.44,-354.689C1529.27,-355.239 1527.55,-356.27 1526.29,-357.782C1525.02,-359.294 1524.39,-361.095 1524.39,-363.184C1524.39,-365.741 1525.23,-367.783 1526.9,-369.309C1528.58,-370.835 1530.82,-371.598 1533.63,-371.598C1535.52,-371.598 1537.18,-371.254 1538.6,-370.567C1540.01,-369.879 1541.1,-368.91 1541.87,-367.659C1542.64,-366.408 1543.03,-364.944 1543.03,-363.267L1538,-363.267C1538,-364.422 1537.6,-365.356 1536.8,-366.071C1536,-366.786 1534.94,-367.144 1533.63,-367.144C1532.33,-367.144 1531.31,-366.793 1530.55,-366.092C1529.8,-365.391 1529.42,-364.477 1529.42,-363.349C1529.42,-362.415 1529.69,-361.645 1530.22,-361.04C1530.76,-360.435 1531.51,-359.995 1532.47,-359.72L1536.64,-358.689C1538.86,-358.139 1540.62,-357.04 1541.89,-355.39C1543.17,-353.74 1543.81,-351.775 1543.81,-349.493C1543.81,-347.705 1543.41,-346.152 1542.6,-344.832C1541.79,-343.513 1540.64,-342.489 1539.15,-341.76C1537.67,-341.031 1535.92,-340.667 1533.91,-340.667Z" style="fill:rgb(213,211,210);fill-rule:nonzero;"/>
            </g>
            <g transform="matrix(1,0,0,1,-145.946,-665.371)">
                <path d="M1360.58,-340.667C1357.69,-340.667 1355.4,-341.492 1353.71,-343.141C1352.02,-344.791 1351.18,-347.073 1351.18,-349.987L1351.18,-362.277C1351.18,-365.192 1352.02,-367.474 1353.71,-369.123C1355.4,-370.773 1357.69,-371.598 1360.58,-371.598C1363.47,-371.598 1365.76,-370.773 1367.45,-369.123C1369.14,-367.474 1369.98,-365.205 1369.98,-362.318L1369.98,-349.987C1369.98,-347.073 1369.14,-344.791 1367.45,-343.141C1365.76,-341.492 1363.47,-340.667 1360.58,-340.667ZM1360.58,-345.204C1361.98,-345.204 1363.04,-345.582 1363.76,-346.338C1364.47,-347.094 1364.83,-348.173 1364.83,-349.575L1364.83,-362.69C1364.83,-364.092 1364.47,-365.171 1363.76,-365.927C1363.04,-366.683 1361.98,-367.061 1360.58,-367.061C1359.18,-367.061 1358.12,-366.683 1357.4,-365.927C1356.69,-365.171 1356.33,-364.092 1356.33,-362.69L1356.33,-349.575C1356.33,-348.173 1356.69,-347.094 1357.4,-346.338C1358.12,-345.582 1359.18,-345.204 1360.58,-345.204Z" style="fill:rgb(213,211,210);fill-rule:nonzero;"/>
            </g>
            <g transform="matrix(1,0,0,1,-146.797,-665.371)">
                <path d="M1484.3,-340.667C1481.41,-340.667 1479.13,-341.492 1477.43,-343.141C1475.74,-344.791 1474.9,-347.073 1474.9,-349.987L1474.9,-362.277C1474.9,-365.192 1475.74,-367.474 1477.43,-369.123C1479.13,-370.773 1481.41,-371.598 1484.3,-371.598C1487.19,-371.598 1489.48,-370.773 1491.17,-369.123C1492.86,-367.474 1493.7,-365.205 1493.7,-362.318L1493.7,-349.987C1493.7,-347.073 1492.86,-344.791 1491.17,-343.141C1489.48,-341.492 1487.19,-340.667 1484.3,-340.667ZM1484.3,-345.204C1485.7,-345.204 1486.76,-345.582 1487.48,-346.338C1488.19,-347.094 1488.55,-348.173 1488.55,-349.575L1488.55,-362.69C1488.55,-364.092 1488.19,-365.171 1487.48,-365.927C1486.76,-366.683 1485.7,-367.061 1484.3,-367.061C1482.9,-367.061 1481.84,-366.683 1481.13,-365.927C1480.41,-365.171 1480.05,-364.092 1480.05,-362.69L1480.05,-349.575C1480.05,-348.173 1480.41,-347.094 1481.13,-346.338C1481.84,-345.582 1482.9,-345.204 1484.3,-345.204Z" style="fill:rgb(213,211,210);fill-rule:nonzero;"/>
            </g>
            <g transform="matrix(1,0,0,1.02003,-141.976,-657.078)">
                <path d="M1376.25,-383.793L1376.25,-413.899L1394.97,-413.899L1394.97,-409.115L1381.32,-409.115L1381.32,-401.073L1393.9,-401.073L1393.9,-396.289L1381.41,-396.289L1381.41,-383.793L1376.25,-383.793Z" style="fill:rgb(213,211,210);fill-rule:nonzero;"/>
            </g>
            <g transform="matrix(1,0,0,1.02003,-138.571,-657.078)">
                <path d="M1407.47,-383.793L1407.47,-409.239L1399.59,-409.239L1399.59,-413.899L1420.54,-413.899L1420.54,-409.239L1412.67,-409.239L1412.67,-383.793L1407.47,-383.793Z" style="fill:rgb(213,211,210);fill-rule:nonzero;"/>
            </g>
            <g transform="matrix(1,0,0,1.02003,-133.021,-657.078)">
                <path d="M1426.15,-383.793L1423.02,-413.899L1427.31,-413.899L1429.2,-394.866C1429.26,-394.151 1429.32,-393.237 1429.39,-392.124C1429.46,-391.01 1429.49,-391.068 1429.49,-390.299C1429.58,-391.068 1429.66,-391.01 1429.76,-392.124C1429.86,-393.237 1429.95,-394.151 1430.03,-394.866L1432.67,-413.899L1437.08,-413.899L1439.56,-394.866C1439.64,-394.151 1439.74,-393.237 1439.87,-392.124C1439.99,-391.01 1440.09,-391.068 1440.17,-390.299C1440.2,-391.068 1440.25,-391.01 1440.32,-392.124C1440.39,-393.237 1440.45,-394.151 1440.5,-394.866L1442.36,-413.899L1446.61,-413.899L1443.31,-383.793L1437.62,-383.793L1435.31,-401.908C1435.23,-402.706 1435.14,-403.675 1435.06,-404.816C1434.98,-405.957 1434.91,-406.898 1434.85,-407.641C1434.8,-406.898 1434.73,-405.957 1434.65,-404.816C1434.57,-403.675 1434.48,-402.706 1434.4,-401.908L1431.88,-383.793L1426.15,-383.793Z" style="fill:rgb(213,211,210);fill-rule:nonzero;"/>
            </g>
            <g transform="matrix(1,0,0,1.02003,-120.99,-657.078)">
                <path d="M1500.3,-383.793L1500.3,-413.899L1518.37,-413.899L1518.37,-409.362L1505.38,-409.362L1505.38,-401.527L1516.92,-401.527L1516.92,-397.155L1505.38,-397.155L1505.38,-388.33L1518.37,-388.33L1518.37,-383.793L1500.3,-383.793Z" style="fill:rgb(213,211,210);fill-rule:nonzero;"/>
            </g>
            <g transform="matrix(1,0,0,1,-146.436,-664.955)">
                <path d="M1335.96,-383.381C1333.92,-383.381 1332.14,-383.738 1330.62,-384.453C1329.09,-385.168 1327.91,-386.192 1327.07,-387.525C1326.23,-388.859 1325.81,-390.447 1325.81,-392.289L1330.89,-392.289C1330.89,-390.941 1331.35,-389.869 1332.27,-389.072C1333.19,-388.275 1334.42,-387.876 1335.96,-387.876C1337.44,-387.876 1338.62,-388.268 1339.49,-389.051C1340.35,-389.835 1340.78,-390.886 1340.78,-392.206C1340.78,-393.196 1340.5,-394.069 1339.94,-394.825C1339.38,-395.581 1338.57,-396.097 1337.53,-396.371L1333.49,-397.402C1331.31,-397.952 1329.59,-398.983 1328.33,-400.496C1327.07,-402.008 1326.43,-403.809 1326.43,-405.898C1326.43,-408.455 1327.27,-410.496 1328.95,-412.022C1330.02,-412.994 1331.31,-413.656 1332.84,-414.009C1333.71,-414.211 1334.65,-414.311 1335.67,-414.311C1337.57,-414.311 1339.22,-413.968 1340.64,-413.28C1342.06,-412.593 1343.15,-411.624 1343.92,-410.373C1344.69,-409.122 1345.07,-407.658 1345.07,-405.981L1340.04,-405.981C1340.04,-407.135 1339.64,-408.07 1338.85,-408.785C1338.05,-409.5 1336.99,-409.857 1335.67,-409.857C1334.38,-409.857 1333.35,-409.507 1332.6,-408.806C1331.84,-408.104 1331.46,-407.19 1331.46,-406.063C1331.46,-405.128 1331.73,-404.358 1332.27,-403.754C1332.8,-403.149 1333.55,-402.709 1334.52,-402.434L1338.68,-401.403C1340.91,-400.853 1342.66,-399.753 1343.94,-398.104C1345.22,-396.454 1345.86,-394.488 1345.86,-392.206C1345.86,-390.419 1345.45,-388.866 1344.64,-387.546C1343.83,-386.226 1342.68,-385.202 1341.2,-384.474C1339.71,-383.745 1337.97,-383.381 1335.96,-383.381Z" style="fill:rgb(213,211,210);fill-rule:nonzero;"/>
            </g>
            <g transform="matrix(1,0,0,1,-143.732,-664.955)">
                <path d="M1360.58,-383.381C1357.69,-383.381 1355.4,-384.205 1353.71,-385.855C1352.02,-387.505 1351.18,-389.787 1351.18,-392.701L1351.18,-404.991C1351.18,-407.905 1352.02,-410.187 1353.71,-411.837C1355.4,-413.486 1357.69,-414.311 1360.58,-414.311C1363.47,-414.311 1365.76,-413.486 1367.45,-411.837C1369.14,-410.187 1369.98,-407.919 1369.98,-405.032L1369.98,-392.701C1369.98,-389.787 1369.14,-387.505 1367.45,-385.855C1365.76,-384.205 1363.47,-383.381 1360.58,-383.381ZM1360.58,-387.917C1361.98,-387.917 1363.04,-388.295 1363.76,-389.051C1364.47,-389.807 1364.83,-390.886 1364.83,-392.289L1364.83,-405.403C1364.83,-406.805 1364.47,-407.885 1363.76,-408.641C1363.04,-409.397 1361.98,-409.775 1360.58,-409.775C1359.18,-409.775 1358.12,-409.397 1357.4,-408.641C1356.69,-407.885 1356.33,-406.805 1356.33,-405.403L1356.33,-392.289C1356.33,-390.886 1356.69,-389.807 1357.4,-389.051C1358.12,-388.295 1359.18,-387.917 1360.58,-387.917Z" style="fill:rgb(213,211,210);fill-rule:nonzero;"/>
            </g>
            <g transform="matrix(1,0,0,1.02003,-127.017,-657.078)">
                <path d="M1448.63,-383.793L1456.22,-413.899L1462.86,-413.899L1470.49,-383.793L1465.21,-383.793L1463.56,-391.093L1455.56,-391.093L1453.91,-383.793L1448.63,-383.793ZM1456.51,-395.299L1462.61,-395.299L1460.8,-403.382C1460.49,-404.73 1460.23,-405.946 1460.01,-407.032C1459.79,-408.118 1459.64,-408.909 1459.56,-409.404C1459.48,-408.909 1459.32,-408.118 1459.1,-407.032C1458.88,-405.946 1458.62,-404.743 1458.32,-403.424L1456.51,-395.299Z" style="fill:rgb(213,211,210);fill-rule:nonzero;"/>
            </g>
            <g transform="matrix(1,0,0,1.02003,-123.612,-657.078)">
                <path d="M1475.11,-383.793L1475.11,-413.899L1484.59,-413.899C1486.6,-413.899 1488.34,-413.528 1489.81,-412.785C1491.28,-412.043 1492.43,-411.005 1493.25,-409.672C1494.08,-408.338 1494.49,-406.764 1494.49,-404.95C1494.49,-402.942 1493.99,-401.19 1493,-399.691C1492.01,-398.193 1490.68,-397.128 1489,-396.495L1494.9,-383.793L1489.25,-383.793L1483.97,-395.753L1480.22,-395.753L1480.22,-383.793L1475.11,-383.793ZM1480.22,-400.289L1484.59,-400.289C1486.05,-400.289 1487.19,-400.688 1488.01,-401.485C1488.84,-402.283 1489.25,-403.382 1489.25,-404.785C1489.25,-406.187 1488.83,-407.3 1487.99,-408.125C1487.15,-408.95 1486.02,-409.362 1484.59,-409.362L1480.22,-409.362L1480.22,-400.289Z" style="fill:rgb(213,211,210);fill-rule:nonzero;"/>
            </g>
            <g id="_-H" serif:id="|H" transform="matrix(0.790723,0,0,0.812387,-228.478,-1194.19)">
                <path d="M1255.87,231.609L1255.87,141.469L1271.31,141.469L1271.31,178.019L1295.51,178.019L1295.51,141.469L1310.94,141.469L1310.94,231.609L1295.51,231.609L1295.51,191.972L1271.31,191.972L1271.31,231.609L1255.87,231.609Z" style="fill:rgb(111,207,240);fill-rule:nonzero;"/>
            </g>
            <g id="A" transform="matrix(0.790723,0,0,0.812387,-226.671,-1194.19)">
                <path d="M1324.77,231.609L1347.49,141.469L1367.37,141.469L1390.22,231.609L1374.41,231.609L1369.47,209.753L1345.52,209.753L1340.58,231.609L1324.77,231.609ZM1348.36,197.158L1366.63,197.158L1361.2,172.956C1360.29,168.922 1359.51,165.28 1358.85,162.028C1358.19,158.777 1357.74,156.41 1357.49,154.928C1357.25,156.41 1356.8,158.777 1356.14,162.028C1355.48,165.28 1354.69,168.881 1353.79,172.833L1348.36,197.158Z" style="fill:rgb(109,204,220);fill-rule:nonzero;"/>
            </g>
            <g id="N" transform="matrix(0.790723,0,0,0.812387,-224.377,-1194.19)">
                <path d="M1403.43,231.609L1403.43,141.469L1422.32,141.469L1447.39,214.322C1447.14,211.687 1446.89,208.58 1446.65,204.999C1446.4,201.418 1446.17,197.775 1445.97,194.071C1445.76,190.367 1445.66,187.074 1445.66,184.193L1445.66,141.469L1459.74,141.469L1459.74,231.609L1440.84,231.609L1416.02,158.756C1416.19,161.143 1416.39,164.024 1416.64,167.399C1416.89,170.775 1417.09,174.232 1417.26,177.772C1417.42,181.311 1417.51,184.563 1417.51,187.527L1417.51,231.609L1403.43,231.609Z" style="fill:rgb(105,201,206);fill-rule:nonzero;"/>
            </g>
            <g id="C" transform="matrix(0.790723,0,0,0.790723,-226.086,-1190.15)">
                <path d="M1506.66,232.843C1500.81,232.843 1495.75,231.753 1491.47,229.571C1487.19,227.39 1483.88,224.303 1481.53,220.31C1479.18,216.318 1478.01,211.605 1478.01,206.172L1478.01,166.906C1478.01,161.472 1479.18,156.76 1481.53,152.767C1483.88,148.775 1487.19,145.688 1491.47,143.506C1495.75,141.325 1500.81,140.234 1506.66,140.234C1512.42,140.234 1517.44,141.325 1521.72,143.506C1526,145.688 1529.34,148.775 1531.72,152.767C1534.11,156.76 1535.3,161.472 1535.3,166.906L1519.75,166.906C1519.75,162.707 1518.61,159.476 1516.35,157.212C1514.09,154.949 1510.86,153.817 1506.66,153.817C1502.46,153.817 1499.21,154.949 1496.9,157.212C1494.6,159.476 1493.44,162.707 1493.44,166.906L1493.44,206.172C1493.44,210.37 1494.6,213.601 1496.9,215.865C1499.21,218.129 1502.46,219.261 1506.66,219.261C1510.86,219.261 1514.09,218.129 1516.35,215.865C1518.61,213.601 1519.75,210.37 1519.75,206.172L1535.3,206.172C1535.3,211.605 1534.11,216.318 1531.72,220.31C1529.34,224.303 1526,227.39 1521.72,229.571C1517.44,231.753 1512.42,232.843 1506.66,232.843Z" style="fill:rgb(102,199,192);fill-rule:nonzero;"/>
            </g>
            <g id="O" transform="matrix(0.790723,0,0,0.790723,-226.232,-1190.15)">
                <path d="M1579.76,232.843C1571.11,232.843 1564.26,230.374 1559.2,225.435C1554.13,220.495 1551.6,213.663 1551.6,204.937L1551.6,168.14C1551.6,159.414 1554.13,152.582 1559.2,147.643C1564.26,142.704 1571.11,140.234 1579.76,140.234C1588.4,140.234 1595.25,142.704 1600.32,147.643C1605.38,152.582 1607.91,159.373 1607.91,168.017L1607.91,204.937C1607.91,213.663 1605.38,220.495 1600.32,225.435C1595.25,230.374 1588.4,232.843 1579.76,232.843ZM1579.76,219.261C1583.95,219.261 1587.12,218.129 1589.27,215.865C1591.4,213.601 1592.48,210.37 1592.48,206.172L1592.48,166.906C1592.48,162.707 1591.4,159.476 1589.27,157.212C1587.12,154.949 1583.95,153.817 1579.76,153.817C1575.56,153.817 1572.39,154.949 1570.25,157.212C1568.11,159.476 1567.04,162.707 1567.04,166.906L1567.04,206.172C1567.04,210.37 1568.11,213.601 1570.25,215.865C1572.39,218.129 1575.56,219.261 1579.76,219.261Z" style="fill:rgb(98,196,179);fill-rule:nonzero;"/>
            </g>
            <g id="C1" serif:id="C" transform="matrix(0.790723,0,0,0.790723,-227.941,-1190.15)">
                <path d="M1654.83,232.843C1648.99,232.843 1643.92,231.753 1639.64,229.571C1635.36,227.39 1632.05,224.303 1629.7,220.31C1627.36,216.318 1626.18,211.605 1626.18,206.172L1626.18,166.906C1626.18,161.472 1627.36,156.76 1629.7,152.767C1632.05,148.775 1635.36,145.688 1639.64,143.506C1643.92,141.325 1648.99,140.234 1654.83,140.234C1660.59,140.234 1665.62,141.325 1669.9,143.506C1674.18,145.688 1677.51,148.775 1679.9,152.767C1682.29,156.76 1683.48,161.472 1683.48,166.906L1667.92,166.906C1667.92,162.707 1666.79,159.476 1664.53,157.212C1662.26,154.949 1659.03,153.817 1654.83,153.817C1650.63,153.817 1647.38,154.949 1645.08,157.212C1642.77,159.476 1641.62,162.707 1641.62,166.906L1641.62,206.172C1641.62,210.37 1642.77,213.601 1645.08,215.865C1647.38,218.129 1650.63,219.261 1654.83,219.261C1659.03,219.261 1662.26,218.129 1664.53,215.865C1666.79,213.601 1667.92,210.37 1667.92,206.172L1683.48,206.172C1683.48,211.605 1682.29,216.318 1679.9,220.31C1677.51,224.303 1674.18,227.39 1669.9,229.571C1665.62,231.753 1660.59,232.843 1654.83,232.843Z" style="fill:rgb(94,194,165);fill-rule:nonzero;"/>
            </g>
            <g id="K" transform="matrix(0.790723,0,0,0.812387,-228.478,-1194.19)">
                <path d="M1700.27,231.609L1700.27,141.469L1715.71,141.469L1715.71,178.266L1726.33,178.266L1743.49,141.469L1760.16,141.469L1739.91,184.44L1761.15,231.609L1743.98,231.609L1726.2,191.725L1715.71,191.725L1715.71,231.609L1700.27,231.609Z" style="fill:rgb(89,191,147);fill-rule:nonzero;"/>
            </g>
        </g>
    </g>
</svg>
